<svg xmlns="http://www.w3.org/2000/svg" width="20" height="20" viewBox="0 0 20 20" fill="none">
  <path fill-rule="evenodd" clip-rule="evenodd" d="M7.5 1.25C6.46447 1.25 5.625 2.08947 5.625 3.125V3.75H3.125H2.4406H1.875C1.52982 3.75 1.25 4.02982 1.25 4.375C1.25 4.72018 1.52982 5 1.875 5H2.55424L3.54587 15.9079C3.6922 17.5175 5.04178 18.75 6.65804 18.75H13.342C14.9582 18.75 16.3078 17.5175 16.4541 15.9079L17.4458 5H18.125C18.4702 5 18.75 4.72018 18.75 4.375C18.75 4.02982 18.4702 3.75 18.125 3.75L17.5594 3.75H16.875H14.375V3.125C14.375 2.08947 13.5355 1.25 12.5 1.25H7.5ZM13.125 3.75V3.125C13.125 2.77982 12.8452 2.5 12.5 2.5H7.5C7.15482 2.5 6.875 2.77982 6.875 3.125V3.75H13.125ZM6.25 5H3.8094L4.79074 15.7948C4.87853 16.7605 5.68828 17.5 6.65804 17.5H13.342C14.3117 17.5 15.1215 16.7605 15.2093 15.7948L16.1906 5H13.75H6.25ZM8.75 7.5C8.75 7.15482 8.47018 6.875 8.125 6.875C7.77982 6.875 7.5 7.15482 7.5 7.5V13.75C7.5 14.0952 7.77982 14.375 8.125 14.375C8.47018 14.375 8.75 14.0952 8.75 13.75V7.5ZM11.875 6.875C12.2202 6.875 12.5 7.15482 12.5 7.5V13.75C12.5 14.0952 12.2202 14.375 11.875 14.375C11.5298 14.375 11.25 14.0952 11.25 13.75V7.5C11.25 7.15482 11.5298 6.875 11.875 6.875Z" fill="#D33852"/>
</svg>