<svg xmlns="http://www.w3.org/2000/svg" width="20" height="20" viewBox="0 0 20 20" fill="none">
  <path fill-rule="evenodd" clip-rule="evenodd" d="M1.875 13.75C1.875 13.5842 1.94085 13.4253 2.05806 13.3081L12.7903 2.57583C14.0107 1.35544 15.9893 1.35544 17.2097 2.57583L17.4242 2.7903C18.6446 4.01068 18.6446 5.98932 17.4242 7.20971L6.69194 17.9419C6.57473 18.0592 6.41576 18.125 6.25 18.125H2.5C2.33424 18.125 2.17527 18.0592 2.05806 17.9419C1.94085 17.8247 1.875 17.6658 1.875 17.5V13.75ZM3.125 14.0089L3.125 16.875H5.99112L14.7411 8.12498L11.875 5.25886L3.125 14.0089ZM12.7589 4.37498L15.625 7.2411L16.5403 6.32583C17.2725 5.5936 17.2725 4.40641 16.5403 3.67418L16.3258 3.45971C15.5936 2.72748 14.4064 2.72748 13.6742 3.45971L12.7589 4.37498Z" fill="#717171"/>
  <path d="M10 17.5C10 17.1548 10.2798 16.875 10.625 16.875H16.875C17.2202 16.875 17.5 17.1548 17.5 17.5C17.5 17.8452 17.2202 18.125 16.875 18.125H10.625C10.2798 18.125 10 17.8452 10 17.5Z" fill="#717171"/>
</svg>