<svg xmlns="http://www.w3.org/2000/svg" width="205" height="182" viewBox="0 0 205 182" fill="none">
  <path d="M27.4917 26.2946C27.2817 25.0402 28.0778 23.8678 29.2697 23.6759L128.542 7.69602C129.734 7.50416 130.871 8.36553 131.081 9.61994L150.085 123.185C150.295 124.44 149.499 125.612 148.307 125.804L49.0345 141.784C47.8426 141.976 46.7062 141.115 46.4963 139.86L27.4917 26.2946Z" fill="#FFAB00"/>
  <path d="M20.0861 48.5497C19.7593 47.3204 20.439 46.0686 21.6044 45.7538L70.1336 32.6417L95.4533 25.8007L107.189 22.6298C107.778 22.4707 108.409 22.5784 108.93 22.927L123.889 32.9393C124.358 33.2532 124.701 33.7383 124.85 34.2978L128.465 47.8955L136.157 76.8314L150.949 132.477C151.276 133.707 150.596 134.958 149.431 135.273L52.3721 161.497C51.2068 161.812 49.9972 161.071 49.6705 159.842L20.0861 48.5497Z" fill="#FFDF99"/>
  <path d="M111.22 34.6463C111.566 35.9504 112.903 36.7222 114.206 36.3702L124.507 33.587L108.001 22.5396L111.22 34.6463Z" fill="#FFF9EB"/>
  <path fill-rule="evenodd" clip-rule="evenodd" d="M57.7493 75.3315C57.6069 74.8534 57.8058 74.3809 58.1935 74.2761L103.918 61.922C104.306 61.8172 104.735 62.1198 104.878 62.5979C105.02 63.076 104.821 63.5485 104.434 63.6533L58.7093 76.0074C58.3216 76.1122 57.8918 75.8096 57.7493 75.3315Z" fill="#FFBB33"/>
  <path fill-rule="evenodd" clip-rule="evenodd" d="M64.4398 96.9404C64.2973 96.4623 64.4863 95.9925 64.8617 95.891L109.139 83.9277C109.515 83.8263 109.935 84.1316 110.077 84.6097C110.22 85.0878 110.031 85.5576 109.655 85.659L65.3775 97.6223C65.002 97.7238 64.5822 97.4184 64.4398 96.9404Z" fill="#FFBB33"/>
  <path fill-rule="evenodd" clip-rule="evenodd" d="M71.1854 117.689C71.0429 117.211 71.0842 116.781 71.2775 116.728L94.0745 110.569C94.2678 110.517 94.5399 110.862 94.6824 111.34C94.8248 111.818 94.7835 112.248 94.5902 112.3L71.7933 118.46C71.6 118.512 71.3278 118.167 71.1854 117.689Z" fill="#FFBB33"/>
  <path d="M148.884 170.744L122.658 148.52C120.393 146.607 120.115 143.22 122.034 140.974L162.86 92.0584C161.666 91.0406 167.102 89.474 170.363 92.2452L196.59 114.47C198.855 116.383 199.133 119.769 197.213 122.015L156.443 170.127C153.947 172.983 147.315 173.532 148.884 170.744Z" fill="#FECFD8"/>
  <path d="M146.666 170.932L120.439 148.708C118.174 146.795 117.896 143.408 119.816 141.162L160.586 93.0504C162.499 90.7858 165.886 90.5077 168.132 92.4268L194.359 114.652C196.623 116.564 196.902 119.951 194.982 122.197L154.212 170.309C152.317 172.567 148.931 172.845 146.666 170.932Z" fill="white"/>
  <path d="M154.629 161.211L129.367 139.813C128.639 139.194 128.545 138.1 129.164 137.372L163.459 96.8943C164.078 96.1664 165.172 96.0719 165.9 96.6911L191.162 118.088C191.89 118.708 191.984 119.801 191.365 120.529L157.07 161.007C156.445 161.748 155.357 161.83 154.629 161.211Z" fill="#8888F2"/>
  <path d="M136.034 158.436C138.063 159.432 140.515 158.595 141.512 156.566C142.508 154.537 141.671 152.085 139.642 151.088C137.613 150.092 135.16 150.929 134.164 152.958C133.168 154.987 134.005 157.44 136.034 158.436Z" fill="white"/>
  <path fill-rule="evenodd" clip-rule="evenodd" d="M139.399 151.581C137.642 150.718 135.519 151.443 134.656 153.2C133.793 154.957 134.518 157.081 136.275 157.943C138.032 158.806 140.156 158.081 141.018 156.324C141.881 154.567 141.156 152.443 139.399 151.581ZM133.671 152.716C134.8 150.415 137.582 149.466 139.883 150.595C142.184 151.725 143.133 154.507 142.004 156.808C140.874 159.109 138.092 160.058 135.791 158.929C133.49 157.799 132.541 155.017 133.671 152.716Z" fill="#DBDBDB"/>
  <path d="M155.619 135.243C152.797 132.865 152.444 128.66 154.822 125.838L161.282 118.194C163.661 115.372 167.866 115.018 170.688 117.397C173.51 119.775 173.864 123.979 171.485 126.801L165.025 134.446C162.646 137.268 158.441 137.621 155.619 135.243Z" fill="#FFCC66"/>
  <path fill-rule="evenodd" clip-rule="evenodd" d="M155.59 121.263C154.999 120.65 154.234 121.263 154.234 121.263L154.231 121.266L154.225 121.273L154.201 121.296C154.182 121.316 154.154 121.343 154.119 121.379C154.049 121.45 153.949 121.554 153.827 121.687C153.583 121.952 153.247 122.336 152.87 122.818C152.12 123.777 151.195 125.144 150.531 126.749C149.867 128.353 149.446 130.239 149.767 132.208C150.057 133.99 150.943 135.77 152.677 137.418C152.548 137.467 152.429 137.549 152.333 137.663L149.557 140.941L146.865 138.681C146.505 138.378 145.968 138.425 145.665 138.785C145.363 139.146 145.409 139.683 145.77 139.985L149.021 142.716C149.047 142.744 149.074 142.77 149.104 142.795C149.135 142.822 149.168 142.846 149.202 142.867L152.432 145.579C152.792 145.882 153.329 145.835 153.632 145.475C153.934 145.114 153.888 144.577 153.527 144.275L150.862 142.037L153.633 138.763C153.728 138.651 153.789 138.521 153.817 138.387C155.788 139.883 157.746 140.468 159.598 140.435C161.589 140.399 163.371 139.651 164.835 138.715C166.3 137.779 167.487 136.629 168.303 135.723C168.712 135.269 169.033 134.871 169.252 134.584C169.362 134.441 169.447 134.325 169.505 134.243C169.534 134.203 169.557 134.171 169.573 134.148L169.591 134.121L169.597 134.113L169.598 134.111C169.598 134.111 169.6 134.109 168.916 133.647L169.6 134.109C169.863 133.719 169.761 133.19 169.371 132.926C168.981 132.663 168.452 132.765 168.189 133.155L168.186 133.158L168.174 133.175C168.163 133.192 168.145 133.217 168.121 133.251C168.072 133.319 167.998 133.42 167.9 133.548C167.703 133.805 167.412 134.167 167.037 134.584C166.284 135.42 165.212 136.453 163.918 137.28C162.623 138.107 161.147 138.703 159.568 138.731C158.009 138.76 156.265 138.237 154.406 136.677L154.405 136.676C152.528 135.108 151.699 133.476 151.448 131.934C151.194 130.373 151.519 128.817 152.105 127.4C152.691 125.985 153.52 124.752 154.212 123.867C154.556 123.426 154.863 123.077 155.081 122.84C155.19 122.721 155.277 122.631 155.335 122.572C155.364 122.542 155.386 122.52 155.4 122.506L155.415 122.491L155.418 122.488C155.418 122.488 156.182 121.875 155.59 121.263Z" fill="#FFCC66"/>
  <path d="M182.913 123.537C184.48 124.306 186.374 123.66 187.143 122.093C187.913 120.526 187.266 118.632 185.699 117.862C184.132 117.093 182.238 117.739 181.469 119.306C180.699 120.874 181.346 122.768 182.913 123.537Z" fill="#FF8DA6"/>
  <path d="M196.92 116.063C196.494 116.177 196.157 116.551 196.098 116.984C196.039 117.417 196.203 117.837 196.268 118.269C196.308 118.597 196.316 118.924 196.275 119.258C196.258 119.419 196.222 119.586 196.192 119.741C196.15 119.89 196.108 120.039 196.14 120.193C196.178 120.366 196.315 120.495 196.477 120.574C196.899 120.781 197.442 120.678 197.805 120.379C198.598 119.736 198.559 118.593 198.435 117.685C198.428 117.604 198.409 117.518 198.402 117.437C198.305 116.882 198.115 116.234 197.501 116.071C197.297 116.017 197.099 116.012 196.92 116.063Z" fill="#FFAEC0"/>
  <path d="M50.1537 127.429L47.4429 108.325L40.4724 126.526L50.1537 127.429Z" fill="#FFCE66"/>
  <path d="M74.0343 155.699L76.4869 132.722L67.3865 157.312L74.0343 155.699Z" fill="#FFCE66"/>
  <path d="M41.7916 156.526L4.60194 153.465C3.5473 153.378 2.74164 152.439 2.82945 151.372L6.56594 105.976C6.65284 104.921 7.59101 104.114 8.65674 104.202L45.8464 107.263C46.9011 107.349 47.7067 108.288 47.6189 109.355L43.8824 154.751C43.7511 155.803 42.8463 156.613 41.7916 156.526Z" fill="white"/>
  <path d="M43.8136 110.885L10.2903 108.126L7.50103 142.014L41.0354 144.774L43.8247 110.886L43.8136 110.885Z" fill="#60E6F9"/>
  <path d="M12.2371 142.404C12.2371 142.404 12.525 131.478 21.6015 132.225C30.6669 132.971 31.0076 124.239 31.0076 124.239C31.0076 124.239 32.336 114.988 43.1892 118.461L41.0207 144.807L12.2344 142.437L12.2371 142.404Z" fill="#0AAEC2"/>
  <mask id="mask0_10557_336" style="mask-type:alpha" maskUnits="userSpaceOnUse" x="7" y="108" width="37" height="37">
    <path d="M43.8135 110.887L10.2922 108.126L7.50089 142.012L41.0332 144.774L43.8245 110.888L43.8135 110.887Z" fill="#1AD1E6"/>
  </mask>
  <g mask="url(#mask0_10557_336)">
    <path d="M20.2769 124.383C22.54 124.569 24.5331 122.885 24.72 120.616C24.907 118.347 23.2224 116.36 20.9532 116.173C18.69 115.986 16.6969 117.67 16.51 119.94C16.3291 122.209 18.0137 124.196 20.2769 124.383Z" fill="#CAF8FF"/>
  </g>
  <path d="M61.9808 178.963L25.9841 169.115C24.9633 168.836 24.3438 167.765 24.6261 166.733L36.6489 122.793C36.9283 121.772 37.9988 121.152 39.0303 121.434L75.027 131.282C76.0478 131.561 76.6673 132.632 76.385 133.664L64.3622 177.604C64.0691 178.633 63.0016 179.242 61.9808 178.963Z" fill="white"/>
  <path d="M72.3535 134.502L39.8955 125.622L30.9213 158.422L63.3793 167.302L72.3535 134.502Z" fill="#FECFD8"/>
  <path fill-rule="evenodd" clip-rule="evenodd" d="M53.0583 139.843C53.4019 139.936 53.6617 140.212 53.7326 140.566L54.3238 143.514C54.4319 144.053 54.9565 144.403 55.4956 144.294C56.0346 144.186 56.3839 143.661 56.2758 143.122L55.6846 140.174C55.4651 139.08 54.6511 138.212 53.581 137.921L47.4833 136.261C46.9528 136.117 46.4057 136.43 46.2614 136.961C46.117 137.491 46.43 138.039 46.9605 138.183L53.0583 139.843Z" fill="#FE6784"/>
  <path d="M58.4921 145.871C58.8451 144.573 58.0797 143.235 56.7825 142.882L46.9771 140.214C45.6799 139.861 44.342 140.626 43.989 141.924L42.0252 149.14C41.6721 150.437 42.4375 151.775 43.7347 152.128L53.5402 154.797C54.8374 155.15 56.1752 154.384 56.5283 153.087L58.4921 145.871Z" fill="#FE6784"/>
  <path d="M61.3624 146.968L58.0414 147.641L57.0625 151.238L59.5758 153.532C59.8443 153.772 60.2708 153.646 60.3638 153.304L61.9263 147.563C62.0193 147.221 61.7155 146.897 61.3624 146.968Z" fill="#FE6784"/>
  <path opacity="0.5" d="M110.512 111.044L91.7729 113.679L98.5871 108.147L145.514 95.5018L146.568 102.483L110.512 111.044Z" fill="#FFBB33"/>
  <path d="M153.908 83.6688C154.251 84.3477 153.959 85.1458 153.231 85.535L99.4978 111.881L95.9963 105.393L149.594 79.483C150.433 79.0514 151.513 79.311 151.959 80.0612C152.557 81.0682 153.042 81.9506 153.908 83.6688Z" fill="#FF8DA6"/>
  <path d="M153.859 83.6458C154.223 84.3349 153.939 85.1599 153.193 85.5581L99.4973 111.881L98.3542 109.852C98.3542 109.852 133.757 92.7267 152.979 82.7793C153.301 82.6127 153.232 82.4618 153.859 83.6458Z" fill="#FE6784"/>
  <path d="M88.9621 110.97C87.5192 112.114 88.7636 114.173 90.6542 113.769L99.4974 111.881L95.996 105.392L88.9621 110.97Z" fill="#FFEDC1"/>
  <mask id="mask1_10557_336" style="mask-type:alpha" maskUnits="userSpaceOnUse" x="85" y="105" width="15" height="10">
    <path d="M85.9866 113.329C85.3307 113.849 85.8963 114.785 86.7557 114.601L98.4769 112.099C99.0032 111.987 99.2814 111.481 99.0515 111.055L96.4849 106.299C96.2415 105.848 95.5665 105.733 95.1412 106.07L85.9866 113.329Z" fill="#FFEDC1"/>
  </mask>
  <g mask="url(#mask1_10557_336)">
    <path d="M85.9862 113.329C85.3303 113.849 85.8959 114.785 86.7553 114.602L91.5018 113.588L89.7511 110.344L85.9862 113.329Z" fill="#484848"/>
  </g>
</svg>