<svg xmlns="http://www.w3.org/2000/svg" width="20" height="20" viewBox="0 0 20 20" fill="none">
  <path fill-rule="evenodd" clip-rule="evenodd" d="M9.375 1.25C4.88769 1.25 1.25 4.88769 1.25 9.375C1.25 13.8623 4.88769 17.5 9.375 17.5C11.3937 17.5 13.2404 16.7638 14.6614 15.5453L17.6831 18.5669C17.9271 18.811 18.3229 18.811 18.5669 18.5669C18.811 18.3229 18.811 17.9271 18.5669 17.6831L15.5453 14.6614C16.7638 13.2404 17.5 11.3937 17.5 9.375C17.5 4.88769 13.8623 1.25 9.375 1.25ZM2.5 9.375C2.5 5.57804 5.57804 2.5 9.375 2.5C13.172 2.5 16.25 5.57804 16.25 9.375C16.25 13.172 13.172 16.25 9.375 16.25C5.57804 16.25 2.5 13.172 2.5 9.375Z" fill="#B0B0B0"/>
</svg>